<svg width="82" height="26" fill="none" xmlns="http://www.w3.org/2000/svg"><g clip-path="url(#clip0_1309_3659)"><path d="M0 5.792c0-.949.715-1.685 1.687-1.685.986 0 1.729.736 1.729 1.685 0 .935-.743 1.67-1.73 1.67C.716 7.463 0 6.728 0 5.793zm.386 3.682H3v12.009H.386V9.473zm15.721 0v11.343c0 3.101-2.387 5.197-5.874 5.197-2.844 0-5.074-1.5-5.46-3.696l2.459-.41c.143 1.189 1.415 1.982 3.001 1.982 1.944 0 3.301-1.147 3.301-2.818v-1.459c-.6.907-2.015 1.53-3.601 1.53-3.602 0-5.674-2.45-5.674-5.934 0-3.483 2.072-5.933 5.631-5.933 1.543 0 2.93.637 3.63 1.572V9.46h2.587v.014zm-2.415 5.735c0-2.223-1.344-3.668-3.388-3.668-2.072 0-3.415 1.459-3.415 3.668 0 2.21 1.343 3.668 3.415 3.668 2.03 0 3.388-1.444 3.388-3.668zm4.059-5.735h2.615v1.997c.815-1.289 2.216-2.195 3.988-2.195 2.573 0 4.373 1.685 4.373 4.29v7.917h-2.615V14.16c0-1.5-.943-2.549-2.473-2.549-2.043 0-3.273 1.714-3.273 4.603v5.268h-2.615V9.473zm12.234-3.682c0-.949.715-1.685 1.687-1.685.986 0 1.73.736 1.73 1.685 0 .935-.744 1.67-1.73 1.67-.958 0-1.687-.735-1.687-1.67zm.386 3.682h2.616v12.009H30.37V9.473zm9.719 12.193c-2.287 0-3.987-1.247-3.987-3.98v-6.004h-2.116v-2.21h2.116V5.892h2.615V9.46h3.13v2.223h-3.13v5.863c0 1.19.672 1.812 1.658 1.812.457 0 1.015-.07 1.472-.283l.172 2.309a6.548 6.548 0 01-1.93.283zm2.787-15.875c0-.949.715-1.685 1.686-1.685.987 0 1.73.736 1.73 1.685 0 .935-.743 1.67-1.73 1.67-.957 0-1.686-.735-1.686-1.67zm.386 3.682h2.615v12.009h-2.615V9.473zm3.902 6.004c0-3.597 2.601-6.202 6.26-6.202 3.63 0 6.26 2.591 6.26 6.202 0 3.611-2.63 6.189-6.274 6.189-3.645 0-6.246-2.592-6.246-6.189zm9.862 0c0-2.308-1.472-3.937-3.602-3.937-2.158 0-3.602 1.615-3.602 3.937 0 2.309 1.444 3.937 3.602 3.937 2.13-.014 3.602-1.628 3.602-3.937zm3.701-6.004h2.616v1.997c.815-1.289 2.215-2.195 3.988-2.195 2.572 0 4.373 1.685 4.373 4.29v7.917H69.09V14.16c0-1.5-.944-2.549-2.473-2.549-2.044 0-3.273 1.714-3.273 4.603v5.268h-2.616V9.473z" fill="#0D3735"/><path d="M74.663 11.626v.057h.958v-.057c0-2.931 2.4-5.31 5.36-5.31h.056v-.949h-.057c-2.958 0-5.36-2.379-5.36-5.31V0h-.957v.057c0 2.931-2.401 5.31-5.36 5.31h-.057v.949h.057c2.959 0 5.36 2.379 5.36 5.31z" fill="#DA3D11"/></g><defs><clipPath id="clip0_1309_3659"><path fill="#fff" d="M0 0h81.023v26H0z"/></clipPath></defs></svg>